<svg xmlns="http://www.w3.org/2000/svg">
  <!-- login -->
  <symbol id="login" viewBox="0 0 13 13">
    <path d="M5.12056 9.09278L6.13889 10.1111L9.75 6.5L6.13889 2.88889L5.12056 3.90722L6.98389 5.77778H0V7.22222H6.98389L5.12056 9.09278ZM11.5556 0H1.44444C0.642778 0 0 0.65 0 1.44444V4.33333H1.44444V1.44444H11.5556V11.5556H1.44444V8.66667H0V11.5556C0 12.35 0.642778 13 1.44444 13H11.5556C12.35 13 13 12.35 13 11.5556V1.44444C13 0.65 12.35 0 11.5556 0Z"/>
  </symbol>
  <!-- Search -->
  <symbol id="search" viewBox="0 0 22 22">
    <path d="M12 0C17.5139 0 22 4.48615 22 10C22 15.5142 17.5139 20 12 20C6.48584 20 2 15.5142 2 10C2 4.48615 6.48584 0 12 0ZM12 18.1539C16.496 18.1539 20.1538 14.496 20.1538 10C20.1538 5.50405 16.496 1.84616 12 1.84616C7.504 1.84616 3.84616 5.504 3.84616 10C3.84616 14.496 7.504 18.1539 12 18.1539Z"/>
    <path d="M0.428111 20.0525L5.08041 15.6486C5.39742 15.3486 5.8971 15.3623 6.19718 15.6793C6.49727 15.996 6.48355 16.4962 6.16655 16.796L1.51425 21.1999C1.35576 21.35 1.15169 21.4216 0.949514 21.416C0.7476 21.4105 0.547537 21.3278 0.397477 21.1693C0.0973892 20.8526 0.11111 20.3523 0.428111 20.0525Z"/>
  </symbol>
</svg>